<?xml version="1.0" encoding="iso-8859-1"?>
<!-- Uploaded to: SVG Repo, www.svgrepo.com, Generator: SVG Repo Mixer Tools -->
<svg height="23px" width="23px" version="1.1" id="Layer_1" xmlns="http://www.w3.org/2000/svg" xmlns:xlink="http://www.w3.org/1999/xlink" 
	 viewBox="0 0 512 512" xml:space="preserve">
<g>
	<g>
		<path d="M319.809,220.688c-6.38-6.381-16.727-6.381-23.109,0l-57.869,57.869L215.3,255.026c-6.379-6.381-16.726-6.381-23.109,0
			c-6.381,6.38-6.381,16.727,0,23.109l35.085,35.086c6.377,6.378,16.729,6.38,23.109,0l69.424-69.424
			C326.191,237.416,326.191,227.07,319.809,220.688z"/>
	</g>
</g>
<g>
	<g>
		<path d="M302.298,0h-91.506c-9.024,0-16.34,7.316-16.34,16.34v79.523c0,9.024,7.316,16.34,16.34,16.34h91.506
			c9.024,0,16.34-7.316,16.34-16.34V16.34C318.638,7.316,311.322,0,302.298,0z"/>
	</g>
</g>
<g>
	<g>
		<path d="M427.574,21.787h-70.808c-3.008,0-5.447,2.439-5.447,5.447v46.843c0,3.008,2.439,5.447,5.447,5.447h14.162
			c9.024,0,16.34,7.316,16.34,16.34v343.149c0,9.024-7.316,16.34-16.34,16.34H142.162c-9.024,0-16.34-7.316-16.34-16.34V95.864
			c0-9.024,7.316-16.34,16.34-16.34h14.162c3.008,0,5.447-2.439,5.447-5.447V27.234c0-3.008-2.439-5.447-5.447-5.447H84.426
			c-9.024,0-16.34,7.316-16.34,16.34V495.66c0,9.024,7.316,16.34,16.34,16.34h343.149c9.024,0,16.34-7.316,16.34-16.34V38.128
			C443.915,29.103,436.599,21.787,427.574,21.787z"/>
	</g>
</g>
</svg>